<?xml version="1.0" encoding="utf-8"?>
<!-- Generator: Adobe Illustrator 22.0.0, SVG Export Plug-In . SVG Version: 6.00 Build 0)  -->
<svg version="1.1" id="Layer_1" xmlns="http://www.w3.org/2000/svg" xmlns:xlink="http://www.w3.org/1999/xlink" x="0px" y="0px"
	 viewBox="0 0 32 32" style="enable-background:new 0 0 32 32;" xml:space="preserve">
<style type="text/css">
	.st0{fill-rule:evenodd;clip-rule:evenodd;fill:#2769B3;}
	.st1{fill-rule:evenodd;clip-rule:evenodd;fill:none;}
</style>
<path class="st0" d="M0,16c-0.1,3.8,2.6,7.3,6.3,8.5c3.5,1.1,7.7,0.3,10.1-2.6c1.7-2,2.1-4.7,1.9-7.2c-3,0-6,0-8.9,0c0,1,0,2,0,3.1
	c1.8,0,3.6,0,5.3,0.1c-0.4,1.5-1.5,2.9-3,3.4c-3,1.3-6.8-0.4-7.8-3.4c-1.1-2.9,0.7-6.4,3.8-7.3c1.9-0.6,3.9,0.1,5.5,1
	c0.8-0.7,1.6-1.5,2.4-2.4C13.7,7.7,11.3,6.8,8.9,7C4,7.1-0.2,11.4,0,16z"/>
<path class="st0" d="M25.9,13.7c0,0.7,0,1.5,0,2.2c-1,0-2,0-3,0v2.2c1,0,2,0,3,0c0,0.7,0,1.5,0,2.2c1,0,2,0,3,0c0-0.8,0-1.5,0-2.2
	c1,0,2,0,3,0V16c-1,0-2,0-3,0c0-0.7,0-1.5,0-2.2C27.9,13.7,26.9,13.7,25.9,13.7z"/>
<path class="st0" d="M0,16c-0.2-4.6,4-8.9,8.8-9c2.5-0.2,4.8,0.7,6.7,2.2c-0.8,0.8-1.5,1.6-2.4,2.4c-1.6-1-3.6-1.7-5.5-1
	c-3.1,0.8-4.9,4.4-3.8,7.3c0.9,3,4.8,4.7,7.8,3.4c1.6-0.5,2.6-1.9,3-3.4c-1.8,0-3.6,0-5.3-0.1c0-1,0-2,0-3.1c3,0,5.9,0,8.9,0
	c0.2,2.5-0.2,5.2-1.9,7.2c-2.3,2.9-6.6,3.7-10.1,2.6C2.6,23.3-0.1,19.8,0,16z"/>
<path class="st1" d="M25.9,13.7h3c0,0.7,0,1.5,0,2.2c1,0,2,0,3,0v2.2c-1,0-2,0-3,0c0,0.7,0,1.5,0,2.2c-1,0-2,0-3,0
	c0-0.7,0-1.5,0-2.2c-1,0-2,0-3,0V16c1,0,2,0,3,0C25.9,15.2,25.9,14.5,25.9,13.7z"/>
</svg>
