<?xml version="1.0" encoding="utf-8"?>
<!-- Generator: Adobe Illustrator 22.0.0, SVG Export Plug-In . SVG Version: 6.00 Build 0)  -->
<svg version="1.1" id="Layer_1" xmlns="http://www.w3.org/2000/svg" xmlns:xlink="http://www.w3.org/1999/xlink" x="0px" y="0px"
	 viewBox="0 0 16 16" style="enable-background:new 0 0 16 16;" xml:space="preserve">
<style type="text/css">
	.st0{fill:#E6E6E6;}
</style>
<path class="st0" d="M8,14c-1.5,0-2.8-0.5-3.9-1.4c0.6-0.8,0.7-1.8,0.1-2.6C3.7,9.3,2.9,8.6,2.9,8c0-0.8,1.9-1.1,2.5-1.9
	c0.7-0.8,0-2.3-0.7-3.1c0.8-0.5,1.7-0.9,2.8-1c0.2,0.5,0.9,1.1,1.2,1.5C9.2,4.3,9.3,4.8,10,4.8c0.2,0,2,0,3-0.3c0.6,1,1,2.2,1,3.5
	C14,11.3,11.3,14,8,14z M8,0C3.6,0,0,3.6,0,8s3.6,8,8,8s8-3.6,8-8S12.4,0,8,0z"/>
<path class="st0" d="M10.2,6.7C9,6.7,7.9,7.5,8,8.6c0.3,2.5-0.5,3.4,0.6,3.9c1.3,0.5,3.9-1.9,3.8-3.9C12.4,7.5,11.5,6.7,10.2,6.7z"
	/>
</svg>
