<?xml version="1.0" encoding="utf-8"?>
<!-- Generator: Adobe Illustrator 22.0.0, SVG Export Plug-In . SVG Version: 6.00 Build 0)  -->
<svg version="1.1" id="Layer_1" xmlns="http://www.w3.org/2000/svg" xmlns:xlink="http://www.w3.org/1999/xlink" x="0px" y="0px"
	 viewBox="0 0 160 34" style="enable-background:new 0 0 160 34;" xml:space="preserve">
<style type="text/css">
	.st0{fill:#0068C5;}
	.st1{fill:#EE7700;}
	.st2{fill:#FFFFFF;}
</style>
<path id="Fill-2" class="st0" d="M23.8,6.4L13.2,17l5.7,5.7l5.7-5.7l3.3-3.3l1.6-1.6c2.7-2.7,7.2-2.7,9.9,0s2.7,7.2,0,9.9
	s-7.2,2.7-9.9,0L26,18.5l-5.7,5.7l3.5,3.5c5.9,5.9,15.4,5.9,21.2,0c5.9-5.9,5.9-15.4,0-21.2C39.1,0.5,29.6,0.5,23.8,6.4z"/>
<path id="Fill-8" class="st1" d="M13.3,17.1l-5.7-5.7l-5.7,5.7l11.4,11.4l5.7-5.7l5.7-5.7l3.3-3.3l1.6-1.6c0.1-0.1,0.3-0.3,0.5-0.4
	c2.8-2.4,4.5-5.8,4.5-9.5V1.9c-3.8,0-7.7,1.5-10.6,4.4L13.3,17.1z"/>
<path id="Fill-11" class="st2" d="M58.1,10.8c0-0.2,0.1-0.4,0.4-0.4H66c0.2,0,0.4,0.2,0.4,0.4v1.5c0,0.2-0.1,0.4-0.4,0.4h-5.5v3.5
	h4.6c0.2,0,0.4,0.2,0.4,0.4v1.5c0,0.2-0.2,0.4-0.4,0.4h-4.6v4.7c0,0.2-0.2,0.4-0.4,0.4h-1.7c-0.2,0-0.4-0.2-0.4-0.4V10.8H58.1z"/>
<path id="Fill-13" class="st2" d="M69.5,10.8c0-0.2,0.1-0.4,0.4-0.4h1.7c0.2,0,0.4,0.2,0.4,0.4v10.4h4.7c0.2,0,0.4,0.2,0.4,0.4v1.5
	c0,0.2-0.1,0.4-0.4,0.4h-6.8c-0.2,0-0.4-0.2-0.4-0.4L69.5,10.8L69.5,10.8z"/>
<path id="Fill-15" class="st2" d="M85.4,21.2c2.3,0,4.3-1.9,4.3-4.2s-1.9-4.3-4.3-4.3c-2.3,0-4.2,1.9-4.2,4.3
	C81.2,19.3,83.1,21.2,85.4,21.2 M85.4,10.3c3.7,0,6.7,3,6.7,6.7s-3,6.7-6.7,6.7s-6.7-2.9-6.7-6.7C78.7,13.3,81.7,10.3,85.4,10.3"/>
<path id="Fill-17" class="st2" d="M94.2,10.9c-0.1-0.3,0.1-0.4,0.3-0.4h1.7c0.1,0,0.3,0.1,0.3,0.3l1.9,7.4h0.1l2.9-7.6
	c0-0.1,0.1-0.2,0.3-0.2h0.3c0.2,0,0.3,0.1,0.3,0.2l3,7.6h0.1l1.9-7.4c0-0.1,0.2-0.3,0.3-0.3h1.7c0.3,0,0.4,0.2,0.3,0.4l-3.5,12.5
	c0,0.1-0.2,0.3-0.3,0.3h-0.3c-0.2,0-0.3-0.1-0.3-0.2l-3.3-8.4h-0.1l-3.3,8.4c-0.1,0.1-0.1,0.2-0.3,0.2h-0.3c-0.1,0-0.3-0.1-0.3-0.3
	L94.2,10.9z"/>
<path id="Fill-19" class="st2" d="M112.9,10.8c0-0.2,0.2-0.4,0.4-0.4h1.7c0.2,0,0.4,0.2,0.4,0.4v12.3c0,0.2-0.2,0.4-0.4,0.4h-1.7
	c-0.2,0-0.4-0.2-0.4-0.4V10.8z"/>
<path id="Fill-21" class="st2" d="M124.1,21.2c2.4,0,4.2-1.8,4.2-4.2s-1.8-4.2-4.2-4.2H122v8.5L124.1,21.2L124.1,21.2z M119.6,10.8
	c0-0.2,0.1-0.4,0.3-0.4h4.4c3.6,0,6.5,2.9,6.5,6.5s-2.9,6.5-6.5,6.5h-4.4c-0.2,0-0.3-0.2-0.3-0.4V10.8z"/>
<path id="Fill-23" class="st2" d="M139.7,16.4c1,0,1.8-0.9,1.8-1.9s-0.9-1.8-1.8-1.8h-3v3.7H139.7z M134.2,10.8
	c0-0.2,0.1-0.4,0.4-0.4h5.3c2.2,0,4,1.8,4,4c0,1.7-1.1,3.1-2.7,3.7l2.5,4.7c0.1,0.2,0,0.5-0.3,0.5h-1.9c-0.2,0-0.3-0.1-0.3-0.2
	l-2.5-4.9h-2.1v4.7c0,0.2-0.2,0.4-0.4,0.4h-1.7c-0.2,0-0.4-0.2-0.4-0.4L134.2,10.8L134.2,10.8z"/>
<path id="Fill-25" class="st2" d="M153.8,19l-1.9-4.1h-0.1L150,19H153.8z M145.8,23l5.8-12.5c0.1-0.1,0.1-0.2,0.3-0.2h0.2
	c0.2,0,0.3,0.1,0.3,0.2l5.7,12.5c0.1,0.2,0,0.5-0.3,0.5h-1.6c-0.3,0-0.4-0.1-0.5-0.4l-0.9-2h-5.5l-0.9,2c-0.1,0.2-0.2,0.4-0.5,0.4
	h-1.6C145.8,23.5,145.7,23.2,145.8,23z"/>
</svg>
