<?xml version="1.0" encoding="utf-8"?>
<!-- Generator: Adobe Illustrator 22.0.0, SVG Export Plug-In . SVG Version: 6.00 Build 0)  -->
<svg version="1.1" id="Layer_1" xmlns="http://www.w3.org/2000/svg" xmlns:xlink="http://www.w3.org/1999/xlink" x="0px" y="0px"
	 viewBox="0 0 110 110" style="enable-background:new 0 0 110 110;" xml:space="preserve">
<style type="text/css">
	.st0{fill:#5FAAEB;}
	.st1{filter:url(#Adobe_OpacityMaskFilter);}
	.st2{fill:#FFFFFF;}
	.st3{mask:url(#mask-2_1_);fill:#3F3F3F;}
	.st4{fill:#3F3F3F;}
	.st5{filter:url(#Adobe_OpacityMaskFilter_1_);}
	.st6{mask:url(#mask-4_1_);fill:#3F3F3F;}
	.st7{filter:url(#Adobe_OpacityMaskFilter_2_);}
	.st8{mask:url(#mask-4_2_);fill:#3F3F3F;}
</style>
<title>market-research-icon</title>
<desc>Created with Sketch.</desc>
<path id="Fill-1" class="st0" d="M12,40.8c0,15.9,12.9,28.8,28.8,28.8s28.8-12.9,28.8-28.8S56.7,12,40.8,12S12,24.9,12,40.8z"/>
<defs>
	<filter id="Adobe_OpacityMaskFilter" filterUnits="userSpaceOnUse" x="0" y="0" width="110" height="110">
		<feColorMatrix  type="matrix" values="1 0 0 0 0  0 1 0 0 0  0 0 1 0 0  0 0 0 1 0"/>
	</filter>
</defs>
<mask maskUnits="userSpaceOnUse" x="0" y="0" width="110" height="110" id="mask-2_1_">
	<g class="st1">
		<polygon id="path-1_1_" class="st2" points="110,0 0,0 0,110 110,110 		"/>
	</g>
</mask>
<path id="Fill-3" class="st3" d="M40.8,78.1c18.7,0,34.2-13.9,36.8-31.9H64.7L56.8,35l-16,23.1L23.1,33.3l-6.2,9.3h-6.3V39H15l8-12
	l17.8,24.9l16-23.1l9.8,13.7H78c0-0.6,0.1-1.2,0.1-1.8S78,39.6,78,39h-3.5v-3.5h3.1C75,17.5,59.5,3.5,40.8,3.5
	C20.9,3.5,4.6,19.3,3.6,39h3.5v3.5H3.6C3.7,43.8,3.8,45,4,46.1h6.7v3.5h-6C8.7,65.9,23.3,78.1,40.8,78.1z M65.6,77.3l11.7-11.7
	l-2.4-2.4c-3.1,4.6-7,8.6-11.7,11.7L65.6,77.3z M71,82.7L82.7,71l-2.8-2.8L68.2,79.8L71,82.7z M92.3,104c1.6,1.6,3.6,2.4,5.8,2.4
	c4.6,0,8.3-3.7,8.3-8.3c0-2.2-0.9-4.3-2.4-5.8L85.2,73.5L73.5,85.2L92.3,104z M40.8,0c22.5,0,40.8,18.3,40.8,40.8
	c0,7-1.8,13.5-4.8,19.3l3.1,3.1l4.1-4.1l2.5,2.5l-4.1,4.1l2.8,2.8l4.1-4.1l2.5,2.5L87.7,71l18.9,18.9c2.2,2.2,3.5,5.2,3.5,8.4
	c0,6.5-5.3,11.8-11.8,11.8c-3.2,0-6.1-1.2-8.4-3.5L71,87.7l-4.1,4.1l-2.5-2.5l4.1-4.1l-2.8-2.8l-4.1,4.1l-2.5-2.5l4.1-4.1l-3.1-3.1
	c-5.7,3.1-12.3,4.8-19.3,4.8C18.3,81.6,0,63.3,0,40.8S18.3,0,40.8,0z"/>
<path id="Fill-6" class="st4" d="M30.2,19.5c2,0,3.5-1.6,3.5-3.5c0-2-1.6-3.5-3.5-3.5c-2,0-3.5,1.6-3.5,3.5
	C26.6,17.9,28.2,19.5,30.2,19.5 M30.2,8.9c3.9,0,7.1,3.2,7.1,7.1c0,1.4-0.4,2.7-1.2,3.9L44,30.9L41.1,33l-7.7-10.8
	c-1,0.5-2.1,0.8-3.3,0.8c-3.9,0-7.1-3.2-7.1-7.1C23.1,12.1,26.2,8.9,30.2,8.9"/>
<defs>
	<filter id="Adobe_OpacityMaskFilter_1_" filterUnits="userSpaceOnUse" x="14.2" y="46.1" width="3.5" height="3.5">
		<feColorMatrix  type="matrix" values="1 0 0 0 0  0 1 0 0 0  0 0 1 0 0  0 0 0 1 0"/>
	</filter>
</defs>
<mask maskUnits="userSpaceOnUse" x="14.2" y="46.1" width="3.5" height="3.5" id="mask-4_1_">
	<g class="st5">
		<polygon id="path-3_1_" class="st2" points="110,110 0,110 0,0 110,0 		"/>
	</g>
</mask>
<polygon id="Fill-8" class="st6" points="17.7,49.7 14.2,49.7 14.2,46.1 17.7,46.1 "/>
<defs>
	<filter id="Adobe_OpacityMaskFilter_2_" filterUnits="userSpaceOnUse" x="67.4" y="35.5" width="3.5" height="3.5">
		<feColorMatrix  type="matrix" values="1 0 0 0 0  0 1 0 0 0  0 0 1 0 0  0 0 0 1 0"/>
	</filter>
</defs>
<mask maskUnits="userSpaceOnUse" x="67.4" y="35.5" width="3.5" height="3.5" id="mask-4_2_">
	<g class="st7">
		<polygon id="path-3_2_" class="st2" points="110,110 0,110 0,0 110,0 		"/>
	</g>
</mask>
<polygon id="Fill-10" class="st8" points="71,39 67.4,39 67.4,35.5 71,35.5 "/>
</svg>
