<?xml version="1.0" encoding="utf-8"?>
<!-- Generator: Adobe Illustrator 22.0.0, SVG Export Plug-In . SVG Version: 6.00 Build 0)  -->
<svg version="1.1" id="Layer_1" xmlns="http://www.w3.org/2000/svg" xmlns:xlink="http://www.w3.org/1999/xlink" x="0px" y="0px"
	 viewBox="0 0 16 16" style="enable-background:new 0 0 16 16;" xml:space="preserve">
<style type="text/css">
	.st0{fill:#E6E6E6;}
</style>
<path class="st0" d="M15.7,14.3l-3-3.1c0.9-1.2,1.4-2.6,1.4-4.2c0-3.9-3.1-7.1-7-7.1S0,3.1,0,7c0,3.9,3.2,7.1,7.1,7.1
	c1.6,0,3.1-0.5,4.2-1.4l3,3c0.2,0.2,0.5,0.3,0.7,0.3s0.5-0.1,0.7-0.3C16.1,15.3,16.1,14.7,15.7,14.3z M7.1,12C4.3,12,2,9.8,2,7
	s2.3-5.1,5.1-5.1c2.8,0,5.1,2.3,5.1,5.1S9.9,12,7.1,12z"/>
</svg>
