<?xml version="1.0" encoding="utf-8"?>
<!-- Generator: Adobe Illustrator 22.0.0, SVG Export Plug-In . SVG Version: 6.00 Build 0)  -->
<svg version="1.1" id="Layer_1" xmlns="http://www.w3.org/2000/svg" xmlns:xlink="http://www.w3.org/1999/xlink" x="0px" y="0px"
	 viewBox="0 0 32 32" style="enable-background:new 0 0 32 32;" xml:space="preserve">
<style type="text/css">
	.st0{fill-rule:evenodd;clip-rule:evenodd;fill:#2769B3;}
</style>
<path class="st0" d="M27.6,8.9c-0.9,0.4-1.8,0.6-2.7,0.7C25.9,9,26.6,8.1,27,7c-0.9,0.5-1.9,0.9-3,1.1c-0.9-0.9-2.1-1.5-3.5-1.5
	c-2.6,0-4.8,2.1-4.8,4.7c0,0.4,0,0.7,0.1,1.1c-4-0.2-7.5-2.1-9.8-4.9C5.6,8.2,5.4,9,5.4,9.9c0,1.6,0.8,3.1,2.1,3.9
	c-0.8,0-1.5-0.2-2.2-0.6c0,0,0,0,0,0.1c0,2.3,1.6,4.2,3.8,4.6c-0.4,0.1-0.8,0.2-1.3,0.2c-0.3,0-0.6,0-0.9-0.1
	c0.6,1.9,2.4,3.2,4.5,3.3c-1.6,1.3-3.7,2-5.9,2c-0.4,0-0.8,0-1.1-0.1c2.1,1.3,4.6,2.1,7.3,2.1c8.8,0,13.6-7.2,13.6-13.4
	c0-0.2,0-0.4,0-0.6C26.2,10.6,27,9.8,27.6,8.9z"/>
</svg>
