<?xml version="1.0" encoding="utf-8"?>
<!-- Generator: Adobe Illustrator 22.0.0, SVG Export Plug-In . SVG Version: 6.00 Build 0)  -->
<svg version="1.1" id="Layer_1" xmlns="http://www.w3.org/2000/svg" xmlns:xlink="http://www.w3.org/1999/xlink" x="0px" y="0px"
	 viewBox="0 0 14 14" style="enable-background:new 0 0 14 14;" xml:space="preserve">
<style type="text/css">
	.st0{fill:#FFFFFF;}
</style>
<path id="Fill-2_1_" class="st0" d="M0,7c0,1.7,1.1,3.3,2.8,3.8c1.5,0.5,3.4,0.1,4.4-1.1c0.7-1,0.9-2.1,0.8-3.3c-1.3,0-2.6,0-3.9,0
	c0,0.5,0,0.9,0,1.4c0.8,0,1.6,0,2.3,0C6.2,8.5,5.8,9.1,5.1,9.3c-1.3,0.6-3-0.2-3.4-1.5C1.2,6.5,2,5,3.4,4.6c0.8-0.3,1.7,0,2.4,0.5
	c0.4-0.3,0.7-0.7,1-1C6,3.3,4.9,2.9,3.9,3C1.8,3-0.1,4.9,0,7z"/>
<path id="Fill-3" class="st0" d="M11.3,6c0,0.3,0,0.7,0,1c-0.4,0-0.9,0-1.3,0v1c0.4,0,0.9,0,1.3,0c0,0.3,0,0.7,0,1
	c0.4,0,0.9,0,1.3,0c0-0.3,0-0.7,0-1c0.4,0,0.9,0,1.3,0V7c-0.4,0-0.9,0-1.3,0c0-0.3,0-0.7,0-1C12.2,6,11.8,6,11.3,6z"/>
<path id="Fill-4" class="st0" d="M0,7c-0.1-2.1,1.8-4,3.9-4c1-0.1,2.1,0.3,2.9,1c-0.3,0.4-0.7,0.7-1,1C5.1,4.6,4.2,4.3,3.4,4.6
	C2,5,1.2,6.5,1.7,7.8c0.4,1.4,2.1,2.1,3.4,1.5c0.7-0.2,1.1-0.9,1.3-1.5c-0.8,0-1.6,0-2.3,0c0-0.5,0-0.9,0-1.4c1.3,0,2.6,0,3.9,0
	c0.1,1.1-0.1,2.3-0.8,3.2c-1,1.3-2.9,1.6-4.4,1.1C1.1,10.3,0,8.7,0,7z"/>
<path id="Fill-5" class="st0" d="M11.3,6h1.3c0,0.3,0,0.7,0,1c0.4,0,0.9,0,1.3,0v1c-0.4,0-0.9,0-1.3,0c0,0.3,0,0.7,0,1
	c-0.4,0-0.9,0-1.3,0c0-0.3,0-0.7,0-1c-0.4,0-0.9,0-1.3,0V7c0.4,0,0.9,0,1.3,0C11.3,6.7,11.3,6.3,11.3,6z"/>
</svg>
