<?xml version="1.0" encoding="utf-8"?>
<!-- Generator: Adobe Illustrator 22.0.0, SVG Export Plug-In . SVG Version: 6.00 Build 0)  -->
<svg version="1.1" id="Layer_1" xmlns="http://www.w3.org/2000/svg" xmlns:xlink="http://www.w3.org/1999/xlink" x="0px" y="0px"
	 viewBox="0 0 182 35" style="enable-background:new 0 0 182 35;" xml:space="preserve">
<style type="text/css">
	.st0{fill:#015185;}
</style>
<path class="st0" d="M50.4,5.2C47,1.8,42.5,0.1,38.1,0.1l0,0c-2.7,0-5.3,0.6-7.7,1.8c-1.6,0.8-3.2,1.9-4.6,3.3L13.5,17.5l0,0l0,0
	l-6.6-6.6l-6.6,6.6l13.1,13.1L20,24l0,0l0,0l0,0l6.6-6.6l3.9-3.9l1.9-1.9c3.2-3.2,8.3-3.2,11.5,0s3.2,8.3,0,11.5s-8.3,3.2-11.5,0
	L28.3,19l-6.6,6.6l4.1,4.1c6.8,6.8,17.8,6.8,24.6,0S57.2,12,50.4,5.2z"/>
<path id="Fill-11" class="st0" d="M65.6,10.4c0-0.2,0.2-0.4,0.4-0.4h8.8c0.2,0,0.4,0.2,0.4,0.4v1.8c0,0.2-0.2,0.4-0.4,0.4h-6.4v4
	h5.3c0.2,0,0.4,0.2,0.4,0.4v1.8c0,0.2-0.2,0.4-0.4,0.4h-5.3v5.4c0,0.2-0.2,0.4-0.4,0.4h-2c-0.2,0-0.4-0.2-0.4-0.4V10.4z"/>
<path id="Fill-13" class="st0" d="M78.8,10.4c0-0.2,0.2-0.4,0.4-0.4h2c0.2,0,0.4,0.2,0.4,0.4v12.1h5.5c0.2,0,0.4,0.2,0.4,0.4v1.8
	c0,0.2-0.2,0.4-0.4,0.4h-7.9c-0.2,0-0.4-0.2-0.4-0.4V10.4z"/>
<path id="Fill-15" class="st0" d="M97.3,22.4c2.7,0,4.9-2.2,4.9-4.9s-2.2-5-4.9-5c-2.7,0-4.9,2.3-4.9,5
	C92.3,20.2,94.6,22.4,97.3,22.4 M97.3,9.8c4.3,0,7.7,3.5,7.7,7.8s-3.4,7.7-7.7,7.7c-4.3,0-7.7-3.4-7.7-7.7
	C89.5,13.2,93,9.8,97.3,9.8"/>
<path id="Fill-17" class="st0" d="M107.5,10.5c-0.1-0.3,0.1-0.5,0.4-0.5h2c0.2,0,0.3,0.2,0.4,0.3l2.2,8.6h0.1L116,10
	c0-0.1,0.2-0.2,0.4-0.2h0.4c0.2,0,0.3,0.1,0.4,0.2l3.4,8.9h0.1l2.2-8.6c0-0.2,0.2-0.3,0.4-0.3h2c0.3,0,0.5,0.2,0.4,0.5L121.6,25
	c0,0.2-0.2,0.3-0.4,0.3h-0.3c-0.2,0-0.3-0.1-0.4-0.2l-3.9-9.7h-0.1l-3.8,9.7c-0.1,0.1-0.2,0.2-0.4,0.2H112c-0.2,0-0.3-0.1-0.4-0.3
	L107.5,10.5z"/>
<path id="Fill-19" class="st0" d="M129.2,10.4c0-0.2,0.2-0.4,0.4-0.4h2c0.2,0,0.4,0.2,0.4,0.4v14.2c0,0.2-0.2,0.4-0.4,0.4h-2
	c-0.2,0-0.4-0.2-0.4-0.4V10.4z"/>
<path id="Fill-21" class="st0" d="M142.2,22.4c2.8,0,4.8-2.1,4.8-4.9s-2-4.9-4.8-4.9h-2.5v9.8C139.7,22.4,142.2,22.4,142.2,22.4z
	 M137,10.4c0-0.2,0.2-0.4,0.4-0.4h5.1c4.2,0,7.6,3.4,7.6,7.5c0,4.2-3.4,7.6-7.6,7.6h-5.1c-0.2,0-0.4-0.2-0.4-0.4V10.4z"/>
<path id="Fill-23" class="st0" d="M160.2,16.8c1.1,0,2.1-1,2.1-2.2c0-1.1-1-2.1-2.1-2.1h-3.5v4.3H160.2z M153.9,10.4
	c0-0.2,0.2-0.4,0.4-0.4h6.2c2.6,0,4.7,2.1,4.7,4.6c0,2-1.3,3.6-3.2,4.3l2.9,5.5c0.2,0.3,0,0.6-0.4,0.6h-2.3c-0.2,0-0.3-0.1-0.3-0.2
	l-2.9-5.7h-2.4v5.5c0,0.2-0.2,0.4-0.4,0.4h-2c-0.2,0-0.4-0.2-0.4-0.4L153.9,10.4L153.9,10.4z"/>
<path id="Fill-25" class="st0" d="M176.7,19.9l-2.2-4.7h-0.1l-2.1,4.7H176.7z M167.4,24.5l6.7-14.5c0.1-0.1,0.2-0.2,0.4-0.2h0.2
	c0.2,0,0.3,0.1,0.4,0.2l6.6,14.5c0.1,0.3,0,0.6-0.4,0.6h-1.9c-0.3,0-0.5-0.1-0.6-0.4l-1.1-2.3h-6.4l-1.1,2.3
	c-0.1,0.2-0.3,0.4-0.6,0.4h-1.9C167.4,25,167.2,24.8,167.4,24.5z"/>
</svg>
