<?xml version="1.0" encoding="utf-8"?>
<!-- Generator: Adobe Illustrator 22.0.0, SVG Export Plug-In . SVG Version: 6.00 Build 0)  -->
<svg version="1.1" id="Layer_1" xmlns="http://www.w3.org/2000/svg" xmlns:xlink="http://www.w3.org/1999/xlink" x="0px" y="0px"
	 viewBox="0 0 14 14" style="enable-background:new 0 0 14 14;" xml:space="preserve">
<style type="text/css">
	.st0{fill:#FFFFFF;}
</style>
<path id="Fill-2" class="st0" d="M12.5,3.6c-0.4,0.2-0.8,0.3-1.3,0.4c0.5-0.3,0.8-0.7,1-1.3c-0.4,0.3-0.9,0.4-1.4,0.6
	c-0.4-0.4-1-0.7-1.6-0.7c-1.2,0-2.3,1-2.3,2.3c0,0.2,0,0.4,0.1,0.5C5.1,5.3,3.5,4.4,2.3,3C2.1,3.3,2,3.7,2,4.1C2,4.9,2.4,5.6,3,6
	C2.6,6,2.3,5.9,2,5.7l0,0c0,1.1,0.8,2,1.8,2.2C3.6,8,3.4,8,3.2,8C3.1,8,2.9,8,2.8,8c0.3,0.9,1.1,1.6,2.1,1.6c-0.8,0.6-1.7,1-2.8,1
	c-0.2,0-0.4,0-0.5,0c1,0.6,2.2,1,3.5,1c4.2,0,6.4-3.5,6.4-6.5c0-0.1,0-0.2,0-0.3C11.8,4.4,12.2,4,12.5,3.6z"/>
</svg>
