<svg xmlns="http://www.w3.org/2000/svg" xmlns:xlink="http://www.w3.org/1999/xlink" width="182" height="35" viewBox="0 0 182 35">
    <defs>
        <path id="a" d="M.016 0h42.018v34.809H.016z"/>
        <path id="c" d="M.016 0H24.63v23.968H.016z"/>
        <path id="e" d="M0 0h37.74v30.532H0z"/>
    </defs>
    <g fill="none" fill-rule="evenodd">
        <path fill="#0A2033" d="M-393-106l1920 30v370H-393z"/>
        <path fill="#EA7C18" d="M0 17.596l13.127 13.127 6.564-6.564L6.564 11.032z"/>
        <g transform="translate(13.111 .191)">
            <mask id="b" fill="#fff">
                <use xlink:href="#a"/>
            </mask>
            <path fill="#FFF" d="M12.323 5.098L.016 17.404l6.564 6.564 6.563-6.564L17 13.548l1.886-1.887c3.167-3.167 8.32-3.167 11.487 0s3.167 8.32 0 11.486c-3.167 3.167-8.32 3.167-11.487 0l-4.102-4.102-6.563 6.564 4.102 4.102c6.797 6.797 17.816 6.797 24.613 0 6.797-6.797 6.797-17.817 0-24.613C30.14-1.7 19.12-1.7 12.323 5.098z" mask="url(#b)"/>
        </g>
        <g transform="translate(13.111 .191)">
            <mask id="d" fill="#fff">
                <use xlink:href="#c"/>
            </mask>
            <path fill="#FFF" d="M24.63.195c0 4.26-1.956 8.246-5.218 10.985-.18.151-.356.312-.526.481L17 13.548l-3.857 3.856-6.563 6.564-6.564-6.564L12.323 5.098A17.35 17.35 0 0 1 24.63 0v.195z" mask="url(#d)"/>
        </g>
        <g transform="translate(0 .191)">
            <mask id="f" fill="#fff">
                <use xlink:href="#e"/>
            </mask>
            <path fill="#FFF" d="M13.127 17.404l-6.563-6.563L0 17.404l13.127 13.128 6.564-6.564 6.564-6.564 3.856-3.856 1.887-1.887c.17-.17.345-.33.525-.481 3.263-2.74 5.218-6.725 5.218-10.985V0a17.35 17.35 0 0 0-12.307 5.098L13.127 17.404z" mask="url(#f)"/>
        </g>
        <path fill="#FFF" d="M65.294 10.474c0-.215.172-.409.408-.409h8.757c.237 0 .409.194.409.41v1.763a.408.408 0 0 1-.409.41h-6.368v4.044h5.314c.215 0 .409.194.409.409v1.764a.423.423 0 0 1-.41.409h-5.313v5.443a.423.423 0 0 1-.41.409h-1.979a.409.409 0 0 1-.408-.409V10.474zM78.504 10.474c0-.215.172-.409.408-.409h1.98c.215 0 .408.194.408.41v12.07h5.487c.237 0 .409.193.409.408v1.764a.408.408 0 0 1-.409.409h-7.875a.409.409 0 0 1-.408-.409V10.474zM96.942 22.544c2.71 0 4.948-2.216 4.948-4.927 0-2.71-2.237-4.97-4.948-4.97-2.711 0-4.927 2.26-4.927 4.97a4.94 4.94 0 0 0 4.927 4.927m0-12.694a7.731 7.731 0 0 1 7.745 7.767c0 4.303-3.442 7.724-7.745 7.724a7.677 7.677 0 0 1-7.724-7.724c0-4.303 3.42-7.767 7.724-7.767M107.14 10.582c-.087-.302.085-.517.387-.517h1.979c.172 0 .344.151.387.302l2.238 8.584h.086l3.42-8.864c.044-.13.152-.237.367-.237h.387c.215 0 .323.108.366.237l3.442 8.864h.086l2.195-8.584c.043-.151.215-.302.387-.302h1.98c.3 0 .473.215.387.517l-4.067 14.458a.413.413 0 0 1-.387.301h-.344c-.194 0-.323-.108-.366-.237l-3.851-9.746h-.108l-3.808 9.746c-.065.13-.15.237-.366.237h-.344a.413.413 0 0 1-.387-.301l-4.067-14.458zM128.826 10.474c0-.215.194-.409.409-.409h2c.216 0 .41.194.41.41v14.242a.423.423 0 0 1-.41.409h-2a.423.423 0 0 1-.409-.409V10.474zM141.864 22.501c2.797 0 4.84-2.109 4.84-4.927 0-2.797-2.043-4.905-4.84-4.905h-2.453V22.5h2.453zm-5.228-12.027c0-.215.172-.409.387-.409h5.099c4.152 0 7.552 3.378 7.552 7.51 0 4.173-3.4 7.55-7.552 7.55h-5.1c-.214 0-.386-.193-.386-.408V10.474zM159.914 16.929c1.14 0 2.13-.99 2.13-2.195 0-1.14-.99-2.087-2.13-2.087h-3.507v4.282h3.507zm-6.325-6.455c0-.215.172-.409.409-.409h6.153c2.582 0 4.69 2.066 4.69 4.626 0 1.98-1.312 3.593-3.184 4.346l2.948 5.465c.15.28 0 .624-.366.624h-2.26a.369.369 0 0 1-.344-.194l-2.86-5.701h-2.39v5.486a.423.423 0 0 1-.408.409h-1.98a.409.409 0 0 1-.408-.409V10.474zM176.33 19.984l-2.152-4.733h-.064l-2.109 4.733h4.325zm-9.295 4.582l6.691-14.48c.065-.128.173-.236.366-.236h.215c.216 0 .302.108.366.237l6.627 14.48c.129.28-.043.559-.366.559h-1.872c-.323 0-.473-.13-.624-.43l-1.054-2.324h-6.433l-1.054 2.324a.648.648 0 0 1-.624.43H167.4c-.323 0-.495-.28-.366-.56z"/>
    </g>
</svg>
