<svg xmlns="http://www.w3.org/2000/svg" xmlns:xlink="http://www.w3.org/1999/xlink" width="110" height="110" viewBox="0 0 110 110">
    <defs>
        <path id="a" d="M0 0h110v110H0z"/>
        <path id="c" d="M0 110h110V0H0z"/>
    </defs>
    <g fill="none" fill-rule="evenodd" transform="matrix(-1 0 0 1 110 0)">
        <path fill="#5FAAEB" d="M97.976 40.807c0 15.895-12.886 28.782-28.782 28.782S40.41 56.702 40.41 40.807c0-15.896 12.887-28.783 28.783-28.783s28.782 12.887 28.782 28.783z"/>
        <mask id="b" fill="#fff">
            <use xlink:href="#a"/>
        </mask>
        <path fill="#3F3F3F" d="M69.194 78.065c-18.732 0-34.237-13.912-36.833-31.936H45.27l7.936-11.11 15.967 23.064 17.714-24.801 6.197 9.299h6.272v-3.549H94.98L86.985 27.04 69.217 51.917 53.249 28.852 43.44 42.581H32.024c-.026-.593-.089-1.175-.089-1.774 0-.6.063-1.182.091-1.775h3.458v-3.548H32.36c2.596-18.024 18.1-31.936 36.833-31.936 19.945 0 36.232 15.768 37.167 35.484h-3.458v3.549h3.458a37.08 37.08 0 0 1-.335 3.548h-6.671v3.548h5.984c-3.995 16.268-18.664 28.388-36.145 28.388zm-24.84-.735L32.67 65.645l2.44-2.44A41.086 41.086 0 0 0 46.794 74.89l-2.44 2.44zm-5.322 5.322L27.347 70.968l2.814-2.814 11.685 11.685-2.814 2.813zm-21.379 21.38a8.206 8.206 0 0 1-5.842 2.42c-4.556 0-8.263-3.707-8.263-8.263 0-2.207.86-4.281 2.42-5.842l18.87-18.87L36.525 85.16l-18.87 18.87zM69.193 0C46.692 0 28.388 18.304 28.388 40.807a40.545 40.545 0 0 0 4.844 19.26l-3.07 3.07-4.068-4.069-2.509 2.509 4.069 4.068-2.814 2.814-4.069-4.068-2.508 2.508 4.068 4.069-18.87 18.87A11.727 11.727 0 0 0 0 98.19C0 104.702 5.298 110 11.81 110a11.73 11.73 0 0 0 8.352-3.46l18.87-18.87 4.068 4.068 2.51-2.508-4.069-4.069 2.814-2.814 4.068 4.068 2.509-2.508-4.068-4.068 3.069-3.07a40.545 40.545 0 0 0 19.26 4.844C91.697 81.613 110 63.309 110 40.807 110 18.304 91.696 0 69.194 0z" mask="url(#b)"/>
        <path fill="#3F3F3F" d="M79.839 19.516a3.552 3.552 0 0 1-3.549-3.548 3.552 3.552 0 0 1 3.549-3.549 3.552 3.552 0 0 1 3.548 3.549 3.552 3.552 0 0 1-3.548 3.548m0-10.645a7.104 7.104 0 0 0-7.097 7.097c0 1.42.43 2.74 1.151 3.852l-7.918 11.085 2.887 2.061 7.68-10.751c.99.525 2.1.85 3.297.85a7.104 7.104 0 0 0 7.096-7.097A7.104 7.104 0 0 0 79.84 8.87"/>
        <mask id="d" fill="#fff">
            <use xlink:href="#c"/>
        </mask>
        <path fill="#3F3F3F" d="M92.258 49.677h3.548V46.13h-3.548zM39.032 39.032h3.549v-3.548h-3.549z" mask="url(#d)"/>
    </g>
</svg>
