<?xml version="1.0" encoding="utf-8"?>
<!-- Generator: Adobe Illustrator 22.0.0, SVG Export Plug-In . SVG Version: 6.00 Build 0)  -->
<svg version="1.1" id="Layer_1" xmlns="http://www.w3.org/2000/svg" xmlns:xlink="http://www.w3.org/1999/xlink" x="0px" y="0px"
	 viewBox="0 0 142 142" style="enable-background:new 0 0 142 142;" xml:space="preserve">
<style type="text/css">
	.st0{fill:#005E9C;}
	.st1{fill:#FFFFFF;}
</style>
<rect id="Rectangle-7" x="21" y="21" transform="matrix(0.7071 -0.7071 0.7071 0.7071 -29.4092 71)" class="st0" width="100" height="100"/>
<path id="Fill-1" class="st1" d="M62.7,65.4c0-6.4,5.2-11.6,11.6-11.6S85.9,59,85.9,65.4S80.7,77,74.3,77S62.7,71.8,62.7,65.4z
	 M63,84.7l4.5-6.5c2,1.1,4.3,1.7,6.7,1.7c3.2,0,6.2-1,8.6-2.8l8.6,8.6L95,82l-8.7-8.7c1.5-2.3,2.4-5,2.4-7.9c0-8-6.4-14.4-14.4-14.4
	c-8,0-14.4,6.5-14.4,14.4c0,4.5,2.1,8.5,5.3,11.2l-2.8,4l-5-3.9L52,83.5v-28h-4v28.8c0,1.1,0.3,2.1,0.9,3l0,0l0.1,0.1
	c1,1.5,2.7,2.5,4.7,2.5H87v-4H53.7c0,0-0.1,0-0.1,0l4.3-5.4L63,84.7z"/>
<path id="Fill-2" class="st1" d="M78.7,59l-9.8,3.4l3.6,2.7L68,71.9c0.9,0.9,2,1.7,3.2,2.1l4.4-6.6L79,70L78.7,59"/>
</svg>
