<svg xmlns="http://www.w3.org/2000/svg" xmlns:xlink="http://www.w3.org/1999/xlink" width="110" height="110" viewBox="0 0 110 110">
    <defs>
        <path id="a" d="M0 110h110V0H0z"/>
    </defs>
    <g fill="none" fill-rule="evenodd">
        <path fill="#333" d="M101.129 95.806H8.871a5.33 5.33 0 0 1-5.323-5.322V88.71h102.904v1.774a5.33 5.33 0 0 1-5.323 5.322zm-67.42 10.646H76.29v-7.097H33.71v7.097zM8.872 31.935h26.613V46.13h3.548V31.935h14.194v7.54h3.548v-7.54h14.194V46.13h3.548V31.935h26.613a5.33 5.33 0 0 1 5.323 5.323v47.903H3.548V37.258a5.33 5.33 0 0 1 5.323-5.323zm7.097-21.29c.98 0 1.774.797 1.774 1.774 0 .978-.795 1.775-1.774 1.775-.98 0-1.774-.797-1.774-1.775 0-.977.794-1.774 1.774-1.774zM55 3.548c.98 0 1.774.797 1.774 1.775 0 .977-.795 1.774-1.774 1.774-.98 0-1.774-.797-1.774-1.774 0-.978.795-1.775 1.774-1.775zm39.032 7.097c.98 0 1.774.797 1.774 1.774 0 .978-.794 1.775-1.774 1.775s-1.774-.797-1.774-1.775c0-.977.795-1.774 1.774-1.774zm7.097 17.742H74.516v-1.774c0-.978.795-1.774 1.774-1.774h14.194a5.33 5.33 0 0 0 5.322-5.323v-2.1c2.06-.735 3.549-2.687 3.549-4.997a5.33 5.33 0 0 0-5.323-5.322 5.33 5.33 0 0 0-5.322 5.322c0 2.31 1.488 4.262 3.548 4.996v2.101c0 .978-.795 1.774-1.774 1.774H76.29a5.33 5.33 0 0 0-5.322 5.323v1.774H56.774V10.32c2.06-.735 3.549-2.686 3.549-4.996A5.33 5.33 0 0 0 55 0a5.33 5.33 0 0 0-5.323 5.323c0 2.31 1.489 4.261 3.549 4.996v18.068H39.032v-1.774a5.33 5.33 0 0 0-5.322-5.323H19.516c-.98 0-1.774-.796-1.774-1.774v-2.1c2.06-.735 3.548-2.687 3.548-4.997a5.33 5.33 0 0 0-5.322-5.322 5.33 5.33 0 0 0-5.323 5.322c0 2.31 1.489 4.262 3.549 4.996v2.101a5.33 5.33 0 0 0 5.322 5.323H33.71c.979 0 1.774.796 1.774 1.774v1.774H8.87C3.98 28.387 0 32.367 0 37.258v53.226c0 4.891 3.98 8.87 8.871 8.87h21.29v7.098h-7.096V110h63.87v-3.548H79.84v-7.097h21.29c4.891 0 8.871-3.98 8.871-8.871V37.258c0-4.891-3.98-8.87-8.871-8.87z"/>
        <path fill="#5FAAEB" d="M24.91 59.135l-.293-.587.293-.586a33.145 33.145 0 0 1 59.293 0l.293.586-.293.587a33.145 33.145 0 0 1-59.293 0z"/>
        <path fill="#333" d="M54.556 71.522c-7.153 0-12.973-5.82-12.973-12.974 0-7.153 5.82-12.973 12.973-12.973 7.154 0 12.974 5.82 12.974 12.973 0 7.154-5.82 12.974-12.974 12.974m0-29.385c-9.049 0-16.41 7.362-16.41 16.411 0 9.05 7.361 16.412 16.41 16.412 9.05 0 16.412-7.362 16.412-16.412 0-9.05-7.362-16.41-16.412-16.41"/>
        <path fill="#333" d="M54.556 63.174a4.63 4.63 0 0 1-4.625-4.626 4.63 4.63 0 0 1 4.625-4.625 4.63 4.63 0 0 1 4.626 4.625 4.63 4.63 0 0 1-4.626 4.626m0-12.61c-4.403 0-7.983 3.581-7.983 7.984 0 4.403 3.58 7.984 7.983 7.984 4.404 0 7.984-3.58 7.984-7.984 0-4.403-3.58-7.983-7.984-7.983"/>
        <mask id="b" fill="#fff">
            <use xlink:href="#a"/>
        </mask>
        <path fill="#333" d="M48.157 93.589h2.661v-2.662h-2.661zM53.67 93.589h2.66v-2.662h-2.66zM59.182 93.589h2.661v-2.662h-2.661z" mask="url(#b)"/>
    </g>
</svg>
