<?xml version="1.0" encoding="utf-8"?>
<!-- Generator: Adobe Illustrator 22.0.0, SVG Export Plug-In . SVG Version: 6.00 Build 0)  -->
<svg version="1.1" id="Layer_1" xmlns="http://www.w3.org/2000/svg" xmlns:xlink="http://www.w3.org/1999/xlink" x="0px" y="0px"
	 viewBox="0 0 142 142" style="enable-background:new 0 0 142 142;" xml:space="preserve">
<style type="text/css">
	.st0{fill:#005E9C;}
	.st1{filter:url(#Adobe_OpacityMaskFilter);}
	.st2{fill:#FFFFFF;}
	.st3{mask:url(#mask-2_1_);fill:#FFFFFF;}
</style>
<rect id="Rectangle-7" x="21" y="21" transform="matrix(0.7071 -0.7071 0.7071 0.7071 -29.4092 71)" class="st0" width="100" height="100"/>
<defs>
	<filter id="Adobe_OpacityMaskFilter" filterUnits="userSpaceOnUse" x="52" y="48.6" width="37.9" height="45.4">
		<feColorMatrix  type="matrix" values="1 0 0 0 0  0 1 0 0 0  0 0 1 0 0  0 0 0 1 0"/>
	</filter>
</defs>
<mask maskUnits="userSpaceOnUse" x="52" y="48.6" width="37.9" height="45.4" id="mask-2_1_">
	<g class="st1">
		<polygon id="path-1_1_" class="st2" points="52.1,48.6 89.9,48.6 89.9,93.9 52.1,93.9 		"/>
	</g>
</mask>
<path id="Fill-1" class="st3" d="M70.9,65.9c0,0.2,0,0.4-0.1,0.6l4.2,2.4c0.7-0.5,1.5-0.8,2.4-0.8c2.1,0,3.8,1.7,3.8,3.8
	c0,2.1-1.7,3.8-3.8,3.8c-2.1,0-3.8-1.7-3.8-3.8c0-0.2,0-0.4,0.1-0.6l-4.2-2.4c-0.7,0.5-1.5,0.8-2.4,0.8c-2.1,0-3.8-1.7-3.8-3.8
	c0-2.1,1.7-3.8,3.8-3.8c0.9,0,1.7,0.3,2.4,0.8l4.2-2.4c0-0.2-0.1-0.4-0.1-0.6c0-2.1,1.7-3.8,3.8-3.8c2.1,0,3.8,1.7,3.8,3.8
	c0,2.1-1.7,3.8-3.8,3.8c-0.9,0-1.7-0.3-2.4-0.8l-4.2,2.4C70.9,65.5,70.9,65.7,70.9,65.9z M89.9,65.7c0-9.4-7.6-17.1-17.1-17.1
	s-17.1,7.7-17.1,17.1c0,0.6,0,1.3,0.1,1.9c-1.3,2.6-3.6,7.1-3.6,7.2C52.1,75,52,75.3,52,75.6c0,1.2,1,2.2,2.2,2.2h2.2l0,6.2
	c0,1.7,1.3,3,3,3l6.2,0l2.1,7L88,87.8l-3.1-10.1C88,74.6,89.9,70.4,89.9,65.7z"/>
</svg>
