<?xml version="1.0" encoding="utf-8"?>
<!-- Generator: Adobe Illustrator 22.0.0, SVG Export Plug-In . SVG Version: 6.00 Build 0)  -->
<svg version="1.1" id="Layer_1" xmlns="http://www.w3.org/2000/svg" xmlns:xlink="http://www.w3.org/1999/xlink" x="0px" y="0px"
	 viewBox="0 0 142 142" style="enable-background:new 0 0 142 142;" xml:space="preserve">
<style type="text/css">
	.st0{fill:#005E9C;}
	.st1{filter:url(#Adobe_OpacityMaskFilter);}
	.st2{fill:#FFFFFF;}
	.st3{mask:url(#mask-2_1_);fill:#FFFFFF;}
	.st4{filter:url(#Adobe_OpacityMaskFilter_1_);}
	.st5{mask:url(#mask-2_2_);fill:#FFFFFF;}
</style>
<rect id="Rectangle-7" x="21" y="21" transform="matrix(0.7071 -0.7071 0.7071 0.7071 -29.4092 71)" class="st0" width="100" height="100"/>
<defs>
	<filter id="Adobe_OpacityMaskFilter" filterUnits="userSpaceOnUse" x="79.5" y="50" width="9.1" height="9.1">
		<feColorMatrix  type="matrix" values="1 0 0 0 0  0 1 0 0 0  0 0 1 0 0  0 0 0 1 0"/>
	</filter>
</defs>
<mask maskUnits="userSpaceOnUse" x="79.5" y="50" width="9.1" height="9.1" id="mask-2_1_">
	<g class="st1">
		<polygon id="path-1_1_" class="st2" points="54,50 88.6,50 88.6,92 54,92 		"/>
	</g>
</mask>
<path id="Fill-1" class="st3" d="M82.4,59.1h6.2L79.5,50v6.2C79.5,57.8,80.8,59.1,82.4,59.1"/>
<defs>
	<filter id="Adobe_OpacityMaskFilter_1_" filterUnits="userSpaceOnUse" x="54" y="50" width="34.6" height="42">
		<feColorMatrix  type="matrix" values="1 0 0 0 0  0 1 0 0 0  0 0 1 0 0  0 0 0 1 0"/>
	</filter>
</defs>
<mask maskUnits="userSpaceOnUse" x="54" y="50" width="34.6" height="42" id="mask-2_2_">
	<g class="st4">
		<polygon id="path-1_2_" class="st2" points="54,50 88.6,50 88.6,92 54,92 		"/>
	</g>
</mask>
<path id="Fill-3" class="st5" d="M77.8,82.7l-2.1-1.9l4.3-4.7l-4.3-4.7l2.1-1.9l6,6.6L77.8,82.7z M70.7,82.8L68,81.9l4-12.5l2.7,0.9
	L70.7,82.8z M67,80.8l-2.1,1.9l-6-6.6l6-6.6l2.1,1.9l-4.3,4.7L67,80.8z M82.4,61.9c-3.1,0-5.7-2.6-5.7-5.7V50H54v36.3
	c0,3.1,2.6,5.7,5.7,5.7h23.3c3.1,0,5.7-2.6,5.7-5.7V61.9H82.4z"/>
</svg>
