<svg xmlns="http://www.w3.org/2000/svg" xmlns:xlink="http://www.w3.org/1999/xlink" width="110" height="110" viewBox="0 0 110 110">
    <defs>
        <path id="a" d="M0 0h56.774v44.355H0z"/>
        <path id="c" d="M0 0h110v99.355H0z"/>
        <path id="e" d="M0 0h62.097v35.484H0z"/>
    </defs>
    <g fill="none" fill-rule="evenodd">
        <g transform="translate(26.613)">
            <mask id="b" fill="#fff">
                <use xlink:href="#a"/>
            </mask>
            <path fill="#5FAAEB" d="M28.387 0C12.709 0 0 12.709 0 28.387c0 5.333 1.497 10.305 4.056 14.568 6.795.88 15.214 1.4 24.331 1.4 9.118 0 17.536-.52 24.331-1.4 2.559-4.263 4.056-9.235 4.056-14.568C56.774 12.709 44.066 0 28.387 0" mask="url(#b)"/>
        </g>
        <g transform="translate(0 10.645)">
            <mask id="d" fill="#fff">
                <use xlink:href="#c"/>
            </mask>
            <path fill="#3F3F3F" d="M97.519 56.623c.02-.54.062-1.078.062-1.623V35.644c5.026.848 8.87 5.22 8.87 10.485 0 5.285-3.876 9.671-8.932 10.494M3.549 46.13c0-5.264 3.844-9.636 8.87-10.485V55c0 .545.041 1.082.063 1.623-5.057-.823-8.934-5.209-8.934-10.494m94.033-14.071v-5.445c0-1.98-1.55-4.812-14.276-6.904a27.861 27.861 0 0 1-.486 3.512c7.647 1.265 10.473 2.743 11.12 3.4-1.456 1.661-11.277 4.225-27.955 5.047a17.768 17.768 0 0 0 4.955-6.121l-3.184-1.563c-2.41 4.905-7.296 7.951-12.755 7.951-7.826 0-14.194-6.367-14.194-14.193S47.174 3.548 55 3.548V0c-9.783 0-17.742 7.959-17.742 17.742 0 5.647 2.661 10.675 6.786 13.927-16.693-.82-26.524-3.387-27.982-5.047.647-.658 3.472-2.136 11.12-3.401a27.863 27.863 0 0 1-.486-3.512c-12.728 2.092-14.277 4.924-14.277 6.904v5.445C5.43 32.936 0 38.904 0 46.129c0 7.347 5.615 13.408 12.777 14.123 1.905 15.167 11.922 28.426 26.256 34.23v4.873h3.549v-7.322l-1.157-.43C26.198 85.954 15.968 71.244 15.968 55V30.628c9.58 4.691 35.49 4.856 39.032 4.856 3.541 0 29.451-.165 39.032-4.856V55c0 16.243-10.23 30.953-25.456 36.604l-1.157.429v7.322h3.549V94.48c14.333-5.803 24.35-19.062 26.256-34.23C104.387 59.538 110 53.477 110 46.13c0-7.225-5.429-13.193-12.42-14.071" mask="url(#d)"/>
        </g>
        <path fill="#3F3F3F" d="M31.935 56.774a3.552 3.552 0 0 1 3.549-3.548 3.552 3.552 0 0 1 3.548 3.548 3.552 3.552 0 0 1-3.548 3.548 3.552 3.552 0 0 1-3.549-3.548m10.646 0a7.104 7.104 0 0 0-7.097-7.097 7.104 7.104 0 0 0-7.097 7.097 7.104 7.104 0 0 0 7.097 7.097 7.104 7.104 0 0 0 7.097-7.097M70.968 56.774a3.552 3.552 0 0 1 3.548-3.548 3.552 3.552 0 0 1 3.548 3.548 3.552 3.552 0 0 1-3.548 3.548 3.552 3.552 0 0 1-3.548-3.548m10.645 0a7.104 7.104 0 0 0-7.097-7.097 7.104 7.104 0 0 0-7.097 7.097 7.104 7.104 0 0 0 7.097 7.097 7.104 7.104 0 0 0 7.097-7.097"/>
        <path fill="#3F3F3F" d="M23.064 63.87c0 17.61 14.327 31.936 31.936 31.936S86.935 81.48 86.935 63.871h-3.548c0 15.652-12.735 28.387-28.387 28.387-15.652 0-28.387-12.735-28.387-28.387h-3.549z"/>
        <g transform="translate(47.903)">
            <mask id="f" fill="#fff">
                <use xlink:href="#e"/>
            </mask>
            <path fill="#3F3F3F" d="M21.29 5.322a3.552 3.552 0 0 1 3.549 3.549 3.552 3.552 0 0 1-3.549 3.548 3.552 3.552 0 0 1-3.548-3.548 3.552 3.552 0 0 1 3.548-3.549zM39.032 21.29a3.552 3.552 0 0 1-3.548 3.549 3.552 3.552 0 0 1-3.549-3.549 3.552 3.552 0 0 1 3.549-3.548 3.552 3.552 0 0 1 3.548 3.548zM7.097 31.935a3.552 3.552 0 0 1-3.549-3.548 3.552 3.552 0 0 1 3.549-3.548 3.552 3.552 0 0 1 3.548 3.548 3.552 3.552 0 0 1-3.548 3.548zM55 3.548a3.552 3.552 0 0 1 3.548 3.549A3.552 3.552 0 0 1 55 10.645a3.552 3.552 0 0 1-3.548-3.548A3.552 3.552 0 0 1 55 3.548zM9.446 21.721c-.738-.262-1.52-.43-2.35-.43A7.104 7.104 0 0 0 0 28.386a7.104 7.104 0 0 0 7.097 7.097 7.104 7.104 0 0 0 7.096-7.097c0-1.797-.691-3.42-1.795-4.671l6.543-8.18c.738.263 1.52.432 2.35.432 1.768 0 3.368-.674 4.612-1.748l3.488 3.488c-.622 1.056-1.004 2.27-1.004 3.582a7.104 7.104 0 0 0 7.097 7.097 7.104 7.104 0 0 0 7.097-7.097c0-1.196-.325-2.306-.85-3.296l8.246-5.89A7.07 7.07 0 0 0 55 14.193a7.104 7.104 0 0 0 7.097-7.097A7.104 7.104 0 0 0 55 0a7.104 7.104 0 0 0-7.097 7.097c0 .669.123 1.304.296 1.918l-8.863 6.332a7.033 7.033 0 0 0-3.852-1.154c-1.313 0-2.527.382-3.582 1.006l-3.953-3.952c.266-.747.438-1.539.438-2.376a7.104 7.104 0 0 0-7.097-7.097 7.104 7.104 0 0 0-7.097 7.097c0 1.797.692 3.42 1.796 4.671l-6.543 8.18z" mask="url(#f)"/>
        </g>
        <path fill="#3F3F3F" d="M68.826 31.607l3.455.808c.307-1.308.46-2.662.46-4.028h-3.548c0 1.093-.122 2.179-.367 3.22"/>
    </g>
</svg>
