<?xml version="1.0" encoding="utf-8"?>
<!-- Generator: Adobe Illustrator 22.0.0, SVG Export Plug-In . SVG Version: 6.00 Build 0)  -->
<svg version="1.1" id="Layer_1" xmlns="http://www.w3.org/2000/svg" xmlns:xlink="http://www.w3.org/1999/xlink" x="0px" y="0px"
	 viewBox="0 0 14 14" style="enable-background:new 0 0 14 14;" xml:space="preserve">
<style type="text/css">
	.st0{opacity:0.7;}
	.st1{fill:#FFFFFF;}
	.st2{display:none;opacity:0.7;}
	.st3{display:inline;}
	.st4{fill:#E6E6E6;}
	.st5{display:inline;fill:#FFFFFF;}
</style>
<title>twitter-icon</title>
<desc>Created with Sketch.</desc>
<g id="twitter" transform="translate(1427.000000, 165.000000)" class="st0">
	<path id="Fill-2" class="st1" d="M-1414.5-161.4c-0.4,0.2-0.8,0.3-1.3,0.4c0.5-0.3,0.8-0.7,1-1.3c-0.4,0.3-0.9,0.4-1.4,0.6
		c-0.4-0.4-1-0.7-1.6-0.7c-1.2,0-2.3,1-2.3,2.3c0,0.2,0,0.4,0.1,0.5c-1.9-0.1-3.5-1-4.7-2.4c-0.2,0.3-0.3,0.7-0.3,1.1
		c0,0.8,0.4,1.5,1,1.9c-0.4,0-0.7-0.1-1-0.3c0,0,0,0,0,0c0,1.1,0.8,2,1.8,2.2c-0.2,0.1-0.4,0.1-0.6,0.1c-0.1,0-0.3,0-0.4,0
		c0.3,0.9,1.1,1.6,2.1,1.6c-0.8,0.6-1.7,1-2.8,1c-0.2,0-0.4,0-0.5,0c1,0.6,2.2,1,3.5,1c4.2,0,6.4-3.5,6.4-6.5c0-0.1,0-0.2,0-0.3
		C-1415.2-160.6-1414.8-161-1414.5-161.4z"/>
</g>
<g id="Main" transform="translate(-1426.000000, -4223.000000)" class="st2">
	<g id="FOOTER_1_" transform="translate(0.000000, 4000.000000)" class="st3">
		<g id="google-plus" transform="translate(1426.000000, 223.000000)">
			<path id="Fill-2_1_" class="st4" d="M0,7c0,1.7,1.1,3.3,2.8,3.8c1.5,0.5,3.4,0.1,4.4-1.1C7.9,8.7,8.1,7.6,8,6.4
				c-1.3,0-2.6,0-3.9,0c0,0.5,0,0.9,0,1.4c0.8,0,1.6,0,2.3,0C6.2,8.5,5.8,9.1,5.1,9.3c-1.3,0.6-3-0.2-3.4-1.5C1.2,6.5,2,5,3.4,4.6
				c0.8-0.3,1.7,0,2.4,0.5c0.4-0.3,0.7-0.7,1-1C6,3.3,4.9,2.9,3.9,3C1.8,3-0.1,4.9,0,7z"/>
			<path id="Fill-3" class="st4" d="M11.3,6c0,0.3,0,0.7,0,1c-0.4,0-0.9,0-1.3,0v1c0.4,0,0.9,0,1.3,0c0,0.3,0,0.7,0,1
				c0.4,0,0.9,0,1.3,0c0-0.3,0-0.7,0-1c0.4,0,0.9,0,1.3,0V7c-0.4,0-0.9,0-1.3,0c0-0.3,0-0.7,0-1C12.2,6,11.8,6,11.3,6z"/>
			<path id="Fill-4" class="st4" d="M0,7c-0.1-2.1,1.8-4,3.9-4C4.9,2.9,6,3.3,6.8,4c-0.3,0.4-0.7,0.7-1,1C5.1,4.6,4.2,4.3,3.4,4.6
				C2,5,1.2,6.5,1.7,7.8c0.4,1.4,2.1,2.1,3.4,1.5c0.7-0.2,1.1-0.9,1.3-1.5c-0.8,0-1.6,0-2.3,0c0-0.5,0-0.9,0-1.4c1.3,0,2.6,0,3.9,0
				c0.1,1.1-0.1,2.3-0.8,3.2c-1,1.3-2.9,1.6-4.4,1.1C1.1,10.3,0,8.7,0,7z"/>
			<path id="Fill-5" class="st4" d="M11.3,6h1.3c0,0.3,0,0.7,0,1c0.4,0,0.9,0,1.3,0v1c-0.4,0-0.9,0-1.3,0c0,0.3,0,0.7,0,1
				c-0.4,0-0.9,0-1.3,0c0-0.3,0-0.7,0-1c-0.4,0-0.9,0-1.3,0V7c0.4,0,0.9,0,1.3,0C11.3,6.7,11.3,6.3,11.3,6z"/>
		</g>
	</g>
</g>
<g id="facebook" transform="translate(1429.000000, 194.000000)" class="st2">
	<path id="Fill-2_2_" class="st5" d="M-1419.7-187h-1.5v5h-2.2v-5h-1.1v-1.8h1.1v-1.1c0-0.8,0.4-2.1,2.3-2.1l1.7,0v1.7h-1.2
		c-0.2,0-0.5,0.1-0.5,0.5v1h1.7L-1419.7-187z"/>
</g>
</svg>
